<mxfile host="app.diagrams.net" modified="2024-07-08T02:00:14.181Z" agent="Mozilla/5.0 (Windows NT 10.0; Win64; x64) AppleWebKit/537.36 (KHTML, like Gecko) Chrome/126.0.0.0 Safari/537.36 Edg/126.0.0.0" etag="wi9hFkG-pDUCYv2irkcw" version="24.6.4" type="github">
  <diagram name="Trang-1" id="W85Zv_N3VKKmml6uSQ-g">
    <mxGraphModel dx="1042" dy="617" grid="1" gridSize="10" guides="1" tooltips="1" connect="1" arrows="1" fold="1" page="1" pageScale="1" pageWidth="827" pageHeight="1169" math="0" shadow="0">
      <root>
        <mxCell id="0" />
        <mxCell id="1" parent="0" />
        <mxCell id="UtXJm1WHUH8V864TOUwO-5" style="edgeStyle=orthogonalEdgeStyle;rounded=0;orthogonalLoop=1;jettySize=auto;html=1;entryX=0.5;entryY=0;entryDx=0;entryDy=0;" edge="1" parent="1">
          <mxGeometry relative="1" as="geometry">
            <mxPoint x="240" y="160" as="sourcePoint" />
            <mxPoint x="240" y="280" as="targetPoint" />
          </mxGeometry>
        </mxCell>
        <mxCell id="UtXJm1WHUH8V864TOUwO-1" value="IDLE" style="rounded=1;whiteSpace=wrap;html=1;" vertex="1" parent="1">
          <mxGeometry x="200" y="80" width="120" height="80" as="geometry" />
        </mxCell>
        <mxCell id="UtXJm1WHUH8V864TOUwO-7" style="edgeStyle=orthogonalEdgeStyle;rounded=0;orthogonalLoop=1;jettySize=auto;html=1;entryX=0.5;entryY=1;entryDx=0;entryDy=0;" edge="1" parent="1">
          <mxGeometry relative="1" as="geometry">
            <mxPoint x="280" y="280" as="sourcePoint" />
            <mxPoint x="280" y="160" as="targetPoint" />
          </mxGeometry>
        </mxCell>
        <mxCell id="UtXJm1WHUH8V864TOUwO-8" style="edgeStyle=orthogonalEdgeStyle;rounded=0;orthogonalLoop=1;jettySize=auto;html=1;" edge="1" parent="1" source="UtXJm1WHUH8V864TOUwO-2" target="UtXJm1WHUH8V864TOUwO-3">
          <mxGeometry relative="1" as="geometry" />
        </mxCell>
        <mxCell id="UtXJm1WHUH8V864TOUwO-2" value="Power Checking" style="rounded=1;whiteSpace=wrap;html=1;" vertex="1" parent="1">
          <mxGeometry x="200" y="280" width="120" height="80" as="geometry" />
        </mxCell>
        <mxCell id="UtXJm1WHUH8V864TOUwO-9" style="edgeStyle=orthogonalEdgeStyle;rounded=0;orthogonalLoop=1;jettySize=auto;html=1;" edge="1" parent="1" source="UtXJm1WHUH8V864TOUwO-3" target="UtXJm1WHUH8V864TOUwO-4">
          <mxGeometry relative="1" as="geometry" />
        </mxCell>
        <mxCell id="UtXJm1WHUH8V864TOUwO-10" style="edgeStyle=orthogonalEdgeStyle;rounded=0;orthogonalLoop=1;jettySize=auto;html=1;exitX=0;exitY=0;exitDx=0;exitDy=0;entryX=1;entryY=1;entryDx=0;entryDy=0;" edge="1" parent="1" source="UtXJm1WHUH8V864TOUwO-3" target="UtXJm1WHUH8V864TOUwO-1">
          <mxGeometry relative="1" as="geometry" />
        </mxCell>
        <mxCell id="UtXJm1WHUH8V864TOUwO-3" value="Network checking" style="rounded=1;whiteSpace=wrap;html=1;" vertex="1" parent="1">
          <mxGeometry x="480" y="280" width="120" height="80" as="geometry" />
        </mxCell>
        <mxCell id="UtXJm1WHUH8V864TOUwO-11" style="edgeStyle=orthogonalEdgeStyle;rounded=0;orthogonalLoop=1;jettySize=auto;html=1;" edge="1" parent="1" source="UtXJm1WHUH8V864TOUwO-4" target="UtXJm1WHUH8V864TOUwO-1">
          <mxGeometry relative="1" as="geometry" />
        </mxCell>
        <mxCell id="UtXJm1WHUH8V864TOUwO-4" value="Data acquisition and Sending&amp;nbsp;" style="rounded=1;whiteSpace=wrap;html=1;" vertex="1" parent="1">
          <mxGeometry x="480" y="80" width="120" height="80" as="geometry" />
        </mxCell>
      </root>
    </mxGraphModel>
  </diagram>
</mxfile>
